<?xml version="1.0" standalone="no"?>
<!DOCTYPE svg PUBLIC "-//W3C//DTD SVG 20010904//EN"
 "http://www.w3.org/TR/2001/REC-SVG-20010904/DTD/svg10.dtd">
<svg version="1.0" xmlns="http://www.w3.org/2000/svg"
 width="342.000000pt" height="274.000000pt" viewBox="0 0 342.000000 274.000000"
 preserveAspectRatio="xMidYMid meet">

<g transform="translate(0.000000,274.000000) scale(0.100000,-0.100000)"
fill="#000000" stroke="none">
<path d="M1286 2135 c3 -27 14 -76 25 -107 10 -32 19 -61 19 -66 0 -5 10 -31
22 -58 12 -27 23 -54 24 -61 1 -7 13 -36 27 -65 13 -29 37 -82 53 -117 49
-107 118 -154 166 -114 13 10 24 25 26 33 16 73 16 76 -4 58 -79 -69 -150 -3
-243 230 -28 70 -58 141 -65 157 -8 17 -24 59 -35 95 l-20 65 5 -50z"/>
<path d="M1616 1844 l-17 -37 30 -28 c17 -15 31 -34 31 -41 0 -10 3 -9 10 2 8
12 10 12 16 -3 6 -18 34 -24 34 -8 0 5 -9 25 -21 43 -12 18 -31 50 -43 71
l-22 38 -18 -37z"/>
<path d="M2149 1793 c-21 -52 -60 -80 -93 -65 -20 9 -26 6 -50 -24 -31 -39
-46 -42 -91 -14 l-33 20 1 -40 2 -40 55 -1 c30 0 70 -2 89 -4 19 -1 28 1 21 5
-16 10 3 22 24 14 9 -4 30 8 54 33 22 21 49 45 61 53 12 8 23 30 26 50 5 30 4
32 -5 12 -13 -31 -34 -23 -40 14 l-5 29 -16 -42z"/>
<path d="M1002 1767 c4 -39 11 -50 86 -121 79 -76 111 -88 55 -21 -48 55 -58
69 -97 128 -21 31 -40 57 -43 57 -2 0 -3 -19 -1 -43z"/>
<path d="M2639 1747 c-36 -32 -95 -113 -101 -137 -2 -8 9 -13 30 -14 21 -1 31
3 28 11 -3 7 7 21 22 32 43 30 94 141 65 141 -5 0 -24 -15 -44 -33z"/>
<path d="M650 1689 c0 -23 34 -92 62 -124 24 -29 163 -141 203 -165 22 -13 42
-27 45 -30 17 -22 220 -88 295 -96 53 -6 65 4 72 57 6 41 5 43 -11 30 -21 -18
-83 -16 -105 2 -9 8 -43 19 -75 26 -121 23 -256 104 -397 239 -76 72 -89 81
-89 61z"/>
<path d="M2430 1544 c0 -8 -16 -22 -36 -30 -32 -13 -38 -13 -60 0 -28 19 -34
20 -34 3 0 -15 54 -73 82 -88 13 -7 18 -6 18 4 0 13 26 13 100 1 44 -7 69 11
74 54 5 34 1 36 -44 23 -30 -9 -80 13 -80 34 0 8 -4 15 -10 15 -5 0 -10 -7
-10 -16z"/>
<path d="M2885 1246 c-11 -7 -34 -17 -52 -20 -18 -4 -48 -23 -67 -43 -35 -37
-58 -38 -49 -3 5 19 2 20 -64 14 -47 -4 -77 -3 -92 6 -21 11 -22 10 -16 -12 4
-12 15 -36 25 -53 18 -29 21 -29 111 -32 78 -2 96 0 114 16 11 10 34 23 52 30
49 20 76 59 64 94 -6 15 -9 15 -26 3z"/>
<path d="M415 1078 c8 -44 14 -48 58 -41 34 5 53 23 25 23 -6 0 -26 11 -44 25
-42 32 -45 32 -39 -7z"/>
<path d="M1185 1030 c-15 -16 -16 -22 -5 -35 15 -19 18 -17 30 24 10 36 1 40
-25 11z"/>
<path d="M620 943 c0 -5 40 -10 93 -11 50 -1 121 -5 157 -8 48 -4 61 -2 48 6
-22 14 -298 26 -298 13z"/>
<path d="M969 909 c45 -18 7 -29 -145 -43 -154 -14 -351 -8 -424 14 -48 14
-50 13 -50 -14 0 -30 39 -62 93 -77 70 -19 371 -15 457 5 41 10 100 19 130 20
32 1 77 12 108 25 42 19 52 28 52 48 0 20 -3 22 -19 13 -28 -14 -99 -12 -146
5 -47 17 -97 20 -56 4z"/>
<path d="M2105 863 c-224 -31 -471 -106 -775 -236 -58 -25 -127 -52 -155 -62
-27 -9 -54 -20 -60 -24 -5 -5 -21 -12 -35 -16 -14 -4 -47 -17 -75 -30 -191
-88 -486 -134 -558 -87 -15 10 -34 27 -43 38 -14 18 -14 17 -10 -16 6 -49 16
-71 45 -96 45 -39 184 -41 321 -5 94 25 156 45 166 52 6 5 31 15 55 23 52 16
193 73 231 92 14 8 36 14 48 14 11 0 18 5 15 10 -3 6 0 10 8 10 8 0 36 9 63
21 27 11 58 24 69 28 38 15 70 29 100 41 118 48 440 144 454 135 5 -3 12 -1
16 4 3 6 18 10 33 11 68 0 129 7 142 15 9 5 11 4 6 -3 -9 -15 14 -15 72 -2 61
14 260 40 310 40 61 0 52 13 -20 29 -60 14 -358 24 -423 14z"/>
<path d="M2998 691 c-38 -54 -73 -65 -218 -68 -115 -3 -427 -32 -525 -49 -121
-21 -341 -81 -443 -120 -34 -13 -66 -24 -71 -24 -14 0 -273 -121 -301 -140
-25 -17 64 -3 190 31 63 17 151 40 195 52 44 11 82 24 85 27 3 4 30 13 60 20
30 7 64 16 75 20 11 5 31 11 45 14 14 2 45 10 70 16 60 15 88 19 200 31 52 5
120 14 150 19 30 6 126 13 215 16 156 6 218 16 240 38 29 29 56 88 53 113 l-3
28 -17 -24z"/>
<path d="M2430 370 c-8 -5 -31 -10 -50 -10 -41 0 -249 -40 -360 -69 -220 -57
-322 -85 -415 -111 -312 -88 -323 -91 -433 -97 -70 -4 -87 -2 -103 13 -22 20
-35 13 -24 -13 5 -10 10 -27 12 -37 7 -36 34 -45 130 -46 50 0 94 4 97 9 3 4
25 11 49 14 24 3 81 18 128 32 103 31 170 50 229 64 25 6 77 20 115 31 39 11
93 25 120 31 28 6 55 15 60 19 6 3 37 12 70 19 33 6 98 20 145 31 47 10 123
26 170 35 85 16 110 31 110 66 0 9 -7 20 -16 23 -19 7 -16 8 -34 -4z"/>
</g>
</svg>
